<svg xmlns="http://www.w3.org/2000/svg" width="220" height="28" viewBox="0 0 220 28">
  <defs>
    <clipPath id="c">
      <rect x="1" y="2" width="218" height="22" rx="11"/>
    </clipPath>
    <linearGradient id="gg" x1="0" y1="1" x2="0" y2="0">
      <stop offset="0%"   stop-color="#1a3d00"/>
      <stop offset="45%"  stop-color="#3a8a10"/>
      <stop offset="100%" stop-color="#88cc22"/>
    </linearGradient>
    <linearGradient id="gh" x1="0" y1="0" x2="1" y2="0">
      <stop offset="0%"   stop-color="#0a1f00" stop-opacity="0.5"/>
      <stop offset="18%"  stop-color="transparent"/>
      <stop offset="82%"  stop-color="transparent"/>
      <stop offset="100%" stop-color="#0a1f00" stop-opacity="0.5"/>
    </linearGradient>
  </defs>

  <!-- 글로우 -->
  <rect x="5" y="8" width="210" height="14" rx="7" fill="#44aa00" opacity="0.4"/>

  <g clip-path="url(#c)">
    <rect x="0" y="0" width="220" height="28" fill="url(#gg)"/>
    <rect x="0" y="0" width="220" height="28" fill="url(#gh)"/>

    <!-- 풀잎들 (상단 경계 따라) -->
    <path d="M14,2 Q12,8 15,12 Q18,8 16,2Z"   fill="#aade44" opacity="0.7"/>
    <path d="M28,2 Q24,10 28,14 Q32,10 30,2Z"  fill="#aade44" opacity="0.7"/>
    <path d="M44,2 Q41,9 44,13 Q47,9 46,2Z"   fill="#ccee66" opacity="0.7"/>
    <path d="M60,2 Q56,11 60,15 Q64,11 62,2Z"  fill="#aade44" opacity="0.7"/>
    <path d="M76,2 Q73,9 76,13 Q79,9 78,2Z"   fill="#ccee66" opacity="0.7"/>
    <path d="M92,2 Q88,10 92,14 Q96,10 94,2Z"  fill="#aade44" opacity="0.7"/>
    <path d="M108,2 Q104,11 108,15 Q112,11 110,2Z" fill="#ccee66" opacity="0.7"/>
    <path d="M124,2 Q120,9 124,13 Q128,9 126,2Z"   fill="#aade44" opacity="0.7"/>
    <path d="M140,2 Q137,10 140,14 Q143,10 142,2Z"  fill="#ccee66" opacity="0.7"/>
    <path d="M156,2 Q152,11 156,15 Q160,11 158,2Z"  fill="#aade44" opacity="0.7"/>
    <path d="M172,2 Q169,9 172,13 Q175,9 174,2Z"   fill="#ccee66" opacity="0.7"/>
    <path d="M188,2 Q184,10 188,14 Q192,10 190,2Z"  fill="#aade44" opacity="0.7"/>
    <path d="M204,2 Q201,8 204,12 Q207,8 206,2Z"   fill="#ccee66" opacity="0.7"/>

    <!-- 잎맥 패턴 (사선) -->
    <line x1="50"  y1="4" x2="72"  y2="24" stroke="#55aa20" stroke-width="1" opacity="0.35"/>
    <line x1="100" y1="4" x2="122" y2="24" stroke="#55aa20" stroke-width="1" opacity="0.35"/>
    <line x1="150" y1="4" x2="172" y2="24" stroke="#55aa20" stroke-width="1" opacity="0.35"/>

    <!-- 이슬 (작은 원) -->
    <circle cx="36"  cy="18" r="2" fill="#ccffaa" opacity="0.5"/>
    <circle cx="88"  cy="14" r="1.5" fill="#ccffaa" opacity="0.5"/>
    <circle cx="138" cy="18" r="2" fill="#ccffaa" opacity="0.5"/>
    <circle cx="184" cy="14" r="1.5" fill="#ccffaa" opacity="0.5"/>

    <!-- 상단 하이라이트 -->
    <rect x="12" y="2" width="196" height="4" rx="2" fill="#ccee88" opacity="0.35"/>
  </g>

  <!-- 테두리 -->
  <rect x="1" y="2" width="218" height="22" rx="11" fill="none" stroke="#66cc22" stroke-width="1.5"/>
</svg>
